<?xml version="1.0" encoding="utf-8"?>
<!-- Generator: Adobe Illustrator 22.0.1, SVG Export Plug-In . SVG Version: 6.00 Build 0)  -->
<svg version="1.1" id="Capa_1" xmlns="http://www.w3.org/2000/svg" xmlns:xlink="http://www.w3.org/1999/xlink" x="0px" y="0px"
	 viewBox="0 0 261.5 261.5" style="enable-background:new 0 0 261.5 261.5;" xml:space="preserve">
<style type="text/css">
	.st0{fill:#449BE2;}
</style>
<g>
	<path class="st0" d="M38,161.7c0,4.1,3.4,7.5,7.5,7.5s7.5-3.4,7.5-7.5v-58.6c0-3-1.8-5.8-4.6-6.9c-2.8-1.2-6-0.5-8.2,1.6l-19,19
		c-2.9,2.9-2.9,7.7,0,10.6c2.9,2.9,7.7,2.9,10.6,0l6.2-6.2V161.7z"/>
	<path class="st0" d="M82.3,31.8l6.2-6.2v40.5c0,4.1,3.4,7.5,7.5,7.5s7.5-3.4,7.5-7.5V7.5c0-3-1.8-5.8-4.6-6.9
		c-2.8-1.2-6-0.5-8.2,1.6l-19,19c-2.9,2.9-2.9,7.7,0,10.6C74.6,34.7,79.4,34.7,82.3,31.8z"/>
	<path class="st0" d="M167.8,96.1c-2.8-1.2-6-0.5-8.2,1.6l-19,19c-2.9,2.9-2.9,7.7,0,10.6s7.7,2.9,10.6,0l6.2-6.2v40.5
		c0,4.1,3.4,7.5,7.5,7.5s7.5-3.4,7.5-7.5V103C172.4,100,170.6,97.3,167.8,96.1z"/>
	<path class="st0" d="M135.2,188.4c-2.8-1.2-6-0.5-8.2,1.6l-19,19c-2.9,2.9-2.9,7.7,0,10.6c2.9,2.9,7.7,2.9,10.6,0l6.2-6.2v22.2
		c0,4.1,3.4,7.5,7.5,7.5s7.5-3.4,7.5-7.5v-40.3C139.8,192.3,138,189.6,135.2,188.4z"/>
	<path class="st0" d="M122.5,143.4v-22.1c0-14.2-11.6-25.8-25.8-25.8h-0.4c-14.2,0-25.8,11.6-25.8,25.8v22.1
		c0,14.2,11.6,25.8,25.8,25.8h0.4C110.9,169.2,122.5,157.6,122.5,143.4z M107.5,143.4c0,5.9-4.8,10.8-10.8,10.8h-0.4
		c-5.9,0-10.8-4.8-10.8-10.8v-22.1c0-5.9,4.8-10.8,10.8-10.8h0.4c5.9,0,10.8,4.8,10.8,10.8V143.4z"/>
	<path class="st0" d="M216.7,95.6h-0.4c-14.2,0-25.8,11.6-25.8,25.8v22.1c0,14.2,11.6,25.8,25.8,25.8h0.4
		c14.2,0,25.8-11.6,25.8-25.8v-22.1C242.5,107.1,231,95.6,216.7,95.6z M227.5,143.4c0,5.9-4.8,10.8-10.8,10.8h-0.4
		c-5.9,0-10.8-4.8-10.8-10.8v-22.1c0-5.9,4.8-10.8,10.8-10.8h0.4c5.9,0,10.8,4.8,10.8,10.8V143.4z"/>
	<path class="st0" d="M147.2,0h-0.4C132.6,0,121,11.6,121,25.8v22.1c0,14.2,11.6,25.8,25.8,25.8h0.4c4.1,0,7.5-3.4,7.5-7.5
		s-3.4-7.5-7.5-7.5h-0.4c-5.9,0-10.8-4.8-10.8-10.8V25.8c0-5.9,4.8-10.8,10.8-10.8h0.4c5.9,0,10.8,4.8,10.8,10.8
		c0,4.1,3.4,7.5,7.5,7.5s7.5-3.4,7.5-7.5C173,11.6,161.4,0,147.2,0z"/>
	<path class="st0" d="M216.7,0h-0.4c-14.2,0-25.8,11.6-25.8,25.8v22.1c0,14.2,11.6,25.8,25.8,25.8h0.4c14.2,0,25.8-11.6,25.8-25.8
		V25.8C242.5,11.6,231,0,216.7,0z M227.5,47.9c0,5.9-4.8,10.8-10.8,10.8h-0.4c-5.9,0-10.8-4.8-10.8-10.8V25.8
		c0-5.9,4.8-10.8,10.8-10.8h0.4c5.9,0,10.8,4.8,10.8,10.8V47.9z"/>
	<path class="st0" d="M61.7,187.9h-0.4c-14.2,0-25.8,11.6-25.8,25.8v22.1c0,14.2,11.6,25.8,25.8,25.8h0.4
		c14.2,0,25.8-11.6,25.8-25.8v-22.1C87.5,199.4,75.9,187.9,61.7,187.9z M72.5,235.7c0,5.9-4.8,10.8-10.8,10.8h-0.4
		c-5.9,0-10.8-4.8-10.8-10.8v-22.1c0-5.9,4.8-10.8,10.8-10.8h0.4c5.9,0,10.8,4.8,10.8,10.8V235.7z"/>
</g>
</svg>
