<?xml version="1.0" encoding="utf-8"?>
<!-- Generator: Adobe Illustrator 22.0.1, SVG Export Plug-In . SVG Version: 6.00 Build 0)  -->
<svg version="1.1" id="Layer_1" xmlns="http://www.w3.org/2000/svg" xmlns:xlink="http://www.w3.org/1999/xlink" x="0px" y="0px"
	 viewBox="0 0 396.2 396.2" style="enable-background:new 0 0 396.2 396.2;" xml:space="preserve">
<style type="text/css">
	.st0{fill:#FFFFFF;}
	.st1{fill:#448AFF;}
	.st2{fill:#449BE2;}
</style>
<path class="st0" d="M364.1,107.2c2.5-7.4,3.7-15.5,3.7-24.1c0-42.7-34-76.7-76.7-76.7c-15.5,0-29.7,5-42,12.3
	c-13-6.8-27.8-11.1-43.2-12.3c-2.5,0-4.9,0-8,0s-5.6,0-8.7,0.6c-45.8,3.1-84.1,34-98.3,75.4c-47,0.6-84.7,38.3-84.7,85.3
	S44.5,253,91.5,253c45.1,0,167.5,0,212.7,0c47,0,85.3-38.3,85.3-85.3C389.4,144.3,379.5,122.7,364.1,107.2z"/>
<g>
	<rect x="245.4" y="278.5" class="st1" width="12.3" height="12.3"/>
	<rect x="245.4" y="307.6" class="st1" width="12.3" height="12.3"/>
	<rect x="245.4" y="336.6" class="st1" width="12.3" height="12.3"/>
	<rect x="137.8" y="278.5" class="st1" width="12.3" height="12.3"/>
	<rect x="137.8" y="307.6" class="st1" width="12.3" height="12.3"/>
	<rect x="137.8" y="336.6" class="st1" width="12.3" height="12.3"/>
</g>
<path class="st2" d="M367.8,339.7c-13.6,0-24.8,9.2-27.2,21.7h-41.4v-102h5.6c50.7,0,91.5-40.8,91.5-91.5c0-23.5-8.7-45.1-24.8-62.4
	c1.9-7.4,3.1-14.8,3.1-22.2c-0.6-45.9-37.7-83-83.4-83c-14.9,0-29.7,4.3-42.7,11.8C218.2-1.5,194.1,0.3,188.5,1
	c-45.8,3.1-85.3,32.8-102,75.4C38.3,79.4,0,119.6,0,167.8c0,50.7,40.8,91.5,91.5,91.5h12.3v102H55.7c-3.1-12.3-14.2-21.6-27.2-21.6
	c-16.1,0-28.4,13-28.4,28.4s12.3,27.8,27.8,27.8c13.6,0,24.8-9.2,27.2-21.7h60.6V259.3h76v81c-12.3,3.1-21.7,14.2-21.7,27.2
	c0,15.5,12.3,27.8,27.8,27.8s27.8-12.3,27.8-27.8c0-13.6-9.2-24.8-21.7-27.2v-81h82.2v114.4h53.8c3.1,12.3,14.2,21.7,27.2,21.7
	c15.5,0,27.8-12.3,27.8-27.8C395.6,352.7,383.3,339.7,367.8,339.7z M27.8,383.6c-8.7,0-15.5-6.8-15.5-15.5s6.8-15.5,15.5-15.5
	s15.5,6.8,15.5,15.5C43.9,376.8,36.5,383.6,27.8,383.6z M110,186.3c-8.7,0-15.5-6.8-15.5-15.5s6.8-15.5,15.5-15.5
	s15.5,6.8,15.5,15.5C125.5,179,118.7,186.3,110,186.3z M213.3,368.1c0,8.7-6.8,15.5-15.5,15.5s-15.5-6.8-15.5-15.5
	s6.8-15.5,15.5-15.5C206.5,352,213.3,359.5,213.3,368.1z M286.2,246.9H204V132l21.7-24.8c3.7,2.5,8.7,3.7,13.6,3.7
	c15.5,0,27.8-12.3,27.8-27.8s-12.3-27.8-27.8-27.8s-27.8,12.3-27.8,27.8c0,6.2,1.9,11.8,5.6,16.7l-24.8,28.4v119.3h-76V198
	c12.3-3.1,21.7-14.2,21.7-27.2c0-15.5-12.3-27.8-27.8-27.8s-27.8,12.3-27.8,27.8c0,13.6,9.2,24.8,21.7,27.2v49.5H91.6
	c-43.9-0.6-79.1-35.9-79.1-79.8c0-43.2,35.2-78.5,78.5-79.1h4.3l1.2-4.3c14.2-40.2,50.7-68.6,93.3-71.7c3.1,0,28.4-2.5,56.9,11.8
	l3.1,1.9l3.1-1.9c11.8-7.4,24.8-11.8,38.9-11.8c38.9,0,70.5,31.5,70.5,70.5c0,7.4-1.2,14.8-3.7,22.2l-1.2,3.7l2.5,2.5
	c15.5,14.8,23.5,35.2,23.5,56.2c0,43.9-35.2,79.1-79.1,79.1h-5.6v-49.4c12.3-3.1,21.7-14.2,21.7-27.2c0-15.5-12.3-27.8-27.8-27.8
	s-27.8,12.3-27.8,27.8c0,13.6,9.2,24.8,21.7,27.2v49.5H286.2L286.2,246.9z M223.2,83.1c0-8.7,6.8-15.5,15.5-15.5s15.5,6.8,15.5,15.5
	s-6.8,15.5-15.5,15.5C230.6,98.6,223.2,91.8,223.2,83.1z M276.9,170.3c0-8.7,6.8-15.5,15.5-15.5s15.5,6.8,15.5,15.5
	s-6.8,15.5-15.5,15.5C283.7,186.3,276.9,179,276.9,170.3z M367.8,383.6c-8.7,0-15.5-6.8-15.5-15.5s6.8-15.5,15.5-15.5
	s15.5,6.8,15.5,15.5S376.5,383.6,367.8,383.6z"/>
</svg>
