<?xml version="1.0" encoding="utf-8"?>
<!-- Generator: Adobe Illustrator 22.0.1, SVG Export Plug-In . SVG Version: 6.00 Build 0)  -->
<svg version="1.1" id="Layer_1" xmlns="http://www.w3.org/2000/svg" xmlns:xlink="http://www.w3.org/1999/xlink" x="0px" y="0px"
	 viewBox="0 0 460.5 406.5" style="enable-background:new 0 0 460.5 406.5;" xml:space="preserve">
<style type="text/css">
	.st0{fill:#FFFFFF;}
	.st1{display:none;}
	.st2{display:inline;fill:#646569;}
	.st3{font-family:'HelveticaNeue-Medium';}
	.st4{font-size:36px;}
</style>
<g>
	<path class="st0" d="M284.3,76.4v77h-13.5v-34.7h-35v34.7h-13.5v-77h13.5V107h35V76.4H284.3z M208.9,153.4h-13.5v-77h13.5V153.4z
		 M182.1,153.4h-14.2l-35-56.6h-0.3v56.6h-12.8v-77h14.2l35.2,56.7h0.2V76.4h12.8L182.1,153.4L182.1,153.4z M331.8,114.6l-47.6-86
		H108.8c-8.8,0-15.8,7.1-15.8,15.9v140.5c0,8.8,7.1,15.9,15.8,15.9h175.2L331.8,114.6z"/>
	<path class="st0" d="M296,200.8l47.7-86.2l-47.6-86h11.9c6.5,0,14.4,4.7,17.6,10.4l41.8,75.7l-42,75.8
		c-3.2,5.7-11.1,10.4-17.6,10.4H296z"/>
</g>
<g class="st1">
	<text transform="matrix(1 0 0 1 47.0259 379.8877)" class="st2 st3 st4">Human </text>
	<text transform="matrix(1 0 0 1 182.3491 379.8877)" class="st2 st3 st4">Development</text>
</g>
<g class="st1">
	<text transform="matrix(1 0 0 1 82.3647 341.3877)" class="st2 st3 st4">Child </text>
	<text transform="matrix(1 0 0 1 185.3647 341.3877)" class="st2 st3 st4">Health </text>
	<text transform="matrix(1 0 0 1 310.3647 341.3877)" class="st2 st3 st4">and</text>
</g>
<g class="st1">
	<text transform="matrix(1 0 0 1 55.5454 299.3877)" class="st2 st3 st4">National </text>
	<text transform="matrix(1 0 0 1 212.2124 299.3877)" class="st2 st3 st4">Institute </text>
	<text transform="matrix(1 0 0 1 368.5454 299.3877)" class="st2 st3 st4">of</text>
</g>
</svg>
