<?xml version="1.0" encoding="utf-8"?>
<!-- Generator: Adobe Illustrator 22.0.1, SVG Export Plug-In . SVG Version: 6.00 Build 0)  -->
<svg version="1.1" id="Layer_1" xmlns="http://www.w3.org/2000/svg" xmlns:xlink="http://www.w3.org/1999/xlink" x="0px" y="0px"
	 viewBox="0 0 385.4 385.4" style="enable-background:new 0 0 385.4 385.4;" xml:space="preserve">
<style type="text/css">
	.st0{fill:#449BE2;}
</style>
<g>
	<path class="st0" d="M42.3,315.8c-1.1-1.4-2.4-2.6-4-3.5s-3.3-1.6-5.1-1.9c1.7-0.3,3.2-0.9,4.6-1.8c1.4-0.9,2.6-2,3.6-3.3
		s1.8-2.8,2.4-4.4c0.6-1.6,0.9-3.3,0.9-5.1c0-2.4-0.5-4.6-1.5-6.5s-2.5-3.6-4.3-5c-1.9-1.4-4.1-2.5-6.8-3.2
		c-2.6-0.7-5.5-1.1-8.7-1.1c-2.4,0-4.7,0.2-7,0.6s-4.4,1-6.4,1.8s-3.8,1.7-5.3,2.7c-1.6,1.1-2.8,2.2-3.8,3.5L10,299
		c1.4-2.2,3.1-3.8,5.1-5s4.2-1.8,6.7-1.8c2.3,0,4.1,0.5,5.5,1.5s2.1,2.5,2.1,4.5c0,2.3-0.9,4.1-2.8,5.5s-4.5,2.1-7.9,2.1h-3v10.4
		h2.7c4.3,0,7.5,0.7,9.5,2.1s3,3.4,3,6.1c0,5-3.4,7.5-10.2,7.5c-2.9,0-5.4-0.4-7.4-1.3c-2.1-0.9-3.9-2.1-5.5-3.8L0,336.9
		c5.2,5.3,12.3,8,21.4,8c3.7,0,7.1-0.4,10.1-1.3s5.6-2.1,7.7-3.7c2.1-1.6,3.8-3.5,4.9-5.8c1.1-2.2,1.7-4.8,1.7-7.6
		c0-2.1-0.3-4.1-0.9-5.9C44.3,318.8,43.5,317.2,42.3,315.8z"/>
	<path class="st0" d="M25.9,182.1c-1.1,0.8-2.6,1.7-4.5,2.7s-4.2,2.3-7.1,3.9c-2.6,1.5-4.8,3-6.6,4.6c-1.7,1.6-3.1,3.3-4.1,5.1
		s-1.7,3.9-2.2,6.1c-0.4,2.2-0.6,4.7-0.6,7.6h44.8v-13H21.2c0.5-0.6,1.3-1.3,2.4-2c1-0.8,2.2-1.5,3.4-2.2c1.2-0.8,2.5-1.5,3.7-2.2
		c1.3-0.7,2.3-1.4,3.2-1.9c1.3-0.8,2.6-1.6,3.9-2.6s2.4-2,3.4-3.2s1.8-2.6,2.5-4.2c0.6-1.6,0.9-3.3,0.9-5.3c0-4.8-1.7-8.6-5.2-11.4
		c-3.5-2.8-8.4-4.2-14.9-4.2c-2.6,0-5.2,0.2-7.6,0.7s-4.7,1.1-6.7,1.9c-2,0.8-3.9,1.7-5.5,2.7s-2.9,2.1-3.9,3.1l9.2,10.6
		c1.7-2,3.5-3.6,5.4-4.8s4.1-1.8,6.6-1.8c2.2,0,3.9,0.5,5.1,1.5s1.8,2.4,1.8,4.1c0,0.8-0.2,1.6-0.7,2.2
		C27.8,180.7,27,181.4,25.9,182.1z"/>
	<path class="st0" d="M12.1,60.3c1.4-0.6,2.7-1.3,3.8-2.1c1.1-0.7,2-1.5,2.5-2.2v23H5.7v13h38.9V79H33.2V40.5H18.5
		c-0.3,0.6-1,1.4-2.2,2.3c-1.2,1-2.6,1.9-4.1,2.8c-1.5,0.9-3,1.7-4.5,2.4S4.9,49,4,49v13.3c1.1,0,2.4-0.2,3.9-0.6
		C9.3,61.4,10.7,60.9,12.1,60.3z"/>
	<rect x="83.4" y="92.7" class="st0" width="302" height="40"/>
	<rect x="83.4" y="12.7" class="st0" width="302" height="40"/>
	<rect x="83.4" y="332.7" class="st0" width="302" height="40"/>
	<rect x="83.4" y="252.7" class="st0" width="302" height="40"/>
	<rect x="83.4" y="172.7" class="st0" width="302" height="40"/>
</g>
</svg>
