<?xml version="1.0" encoding="utf-8"?>
<!-- Generator: Adobe Illustrator 22.0.1, SVG Export Plug-In . SVG Version: 6.00 Build 0)  -->
<svg version="1.1" id="Layer_1" xmlns="http://www.w3.org/2000/svg" xmlns:xlink="http://www.w3.org/1999/xlink" x="0px" y="0px"
	 viewBox="0 0 343.4 343.4" style="enable-background:new 0 0 343.4 343.4;" xml:space="preserve">
<style type="text/css">
	.st0{fill:#449BE2;}
	.st1{fill:#FFFFFF;}
</style>
<path class="st0" d="M298,151.5c0.2-2.2,0.2-4.3,0.2-6.5c0-48.4-39.2-87.7-87.7-87.7c-29.5,0-55.6,14.6-71.5,36.9
	c-4.9-1.1-10-1.7-15.3-1.7c-33.8,0-61.9,24.1-68.1,56.1C23.9,155,0,183,0,216.7c0,38.3,31.1,69.4,69.4,69.4H274
	c38.3,0,69.4-31.1,69.4-69.4C343.4,186.8,324.5,161.3,298,151.5z"/>
<polygon class="st1" points="197.6,244.5 197.6,169.3 223.1,169.3 175.5,121.7 128,169.3 153.4,169.3 153.4,244.5 "/>
</svg>
